<?xml version="1.0" encoding="UTF-8"?>
<svg version="1.1" xmlns="http://www.w3.org/2000/svg" width="500" height="500">
<path d="M0 0 C7.55409827 1.34303257 13.85389975 1.09964559 21.37060547 -0.10205078 C68.15474845 -7.45448029 116.79362215 18.46269778 153.52294922 44.79980469 C162.42921509 51.30708355 170.56369452 58.71866422 178.56591797 66.29248047 C179.50693359 67.17935547 180.44794922 68.06623047 181.41748047 68.97998047 C187.72554832 75.09258706 193.1565723 81.52895124 198.32324219 88.60107422 C199.57467095 90.30439416 200.85147324 91.98621189 202.13232422 93.66748047 C207.9951907 101.47571717 212.55980592 109.54965854 216.6796875 118.39355469 C217.50926776 120.17109607 218.36291613 121.93734901 219.21826172 123.70263672 C244.48291599 176.6105514 236.62620919 251.63458114 217.72705078 305.69189453 C210.89642208 324.47058511 202.00373563 341.63469654 189.56591797 357.29248047 C188.38835937 358.78714844 188.38835937 358.78714844 187.18701172 360.31201172 C158.49368155 395.99154402 121.14735395 424.04474355 74.50170898 429.8449707 C69.13354639 430.42223521 63.83500546 430.31162786 58.44482422 430.17919922 C26.42853601 429.5471345 26.42853601 429.5471345 -4.84667969 435.56152344 C-50.84061757 448.55509298 -110.02420317 438.96842001 -151.46826172 416.40625 C-195.93560815 391.21250504 -226.45722318 344.77256476 -240.14892578 296.35107422 C-241.76719588 290.37063707 -243.155432 284.35388311 -244.43408203 278.29248047 C-244.70309326 277.05183838 -244.70309326 277.05183838 -244.97753906 275.78613281 C-250.58582386 248.54668799 -249.96220019 216.24699243 -243.43408203 189.29248047 C-243.06404053 187.68711426 -243.06404053 187.68711426 -242.68652344 186.04931641 C-239.04147218 170.37268714 -234.38004982 155.24479554 -228.43408203 140.29248047 C-228.16160645 139.591875 -227.88913086 138.89126953 -227.60839844 138.16943359 C-209.37364512 91.72048151 -174.18641822 49.43728822 -130.43408203 25.29248047 C-129.25072266 24.63119141 -129.25072266 24.63119141 -128.04345703 23.95654297 C-115.88293606 17.20484267 -103.67095086 11.57905509 -90.43408203 7.29248047 C-89.46204834 6.97424316 -88.49001465 6.65600586 -87.48852539 6.328125 C-58.54707081 -2.89041077 -29.97225192 -5.59313257 0 0 Z M38.56591797 9.29248047 C41.2904132 10.74457193 43.86185992 11.74378346 46.84716797 12.51904297 C80.55813593 21.54695843 111.5128008 36.84084931 137.56591797 60.29248047 C139.0233835 61.5434922 140.48160776 62.79362106 141.94091797 64.04248047 C156.69903515 77.10603305 168.75235112 93.25989892 178.56591797 110.29248047 C178.92153809 110.90124023 179.2771582 111.51 179.64355469 112.13720703 C190.03743406 130.11655333 197.24765231 149.99792865 201.56591797 170.29248047 C201.72817871 171.01677246 201.89043945 171.74106445 202.05761719 172.48730469 C207.48148305 197.79308135 206.91138337 228.03430888 201.56591797 253.29248047 C201.26102803 254.85233675 200.95634337 256.41223316 200.65185547 257.97216797 C193.81133413 291.72250877 179.01445163 325.546833 154.00341797 349.85498047 C153.19904297 350.65935547 152.39466797 351.46373047 151.56591797 352.29248047 C151.56591797 352.95248047 151.56591797 353.61248047 151.56591797 354.29248047 C150.57591797 354.62248047 149.58591797 354.95248047 148.56591797 355.29248047 C146.35734137 357.16756208 146.35734137 357.16756208 144.56591797 359.29248047 C144.56591797 359.95248047 144.56591797 360.61248047 144.56591797 361.29248047 C143.97166016 361.55416016 143.37740234 361.81583984 142.76513672 362.08544922 C140.43203763 363.36596009 139.15321609 364.63626141 137.37841797 366.60498047 C113.96097076 390.54281539 79.80485088 408.13171269 48.56591797 419.29248047 C48.56591797 419.62248047 48.56591797 419.95248047 48.56591797 420.29248047 C87.20578597 421.53277253 118.16892867 410.4076483 148.66918945 386.75952148 C150.02168841 385.71341951 151.40554506 384.70734677 152.80834961 383.72973633 C153.67834595 383.01829468 153.67834595 383.01829468 154.56591797 382.29248047 C154.56591797 381.63248047 154.56591797 380.97248047 154.56591797 380.29248047 C155.12923828 380.05400391 155.69255859 379.81552734 156.27294922 379.56982422 C164.9289877 374.74780619 171.56652986 364.98650093 177.56591797 357.29248047 C178.02224609 356.71788086 178.47857422 356.14328125 178.94873047 355.55126953 C191.12127118 340.18099586 200.94628501 323.78642025 207.56591797 305.29248047 C207.82711426 304.56657715 208.08831055 303.84067383 208.35742188 303.09277344 C215.49887728 282.84174086 219.25235233 261.59412356 221.56591797 240.29248047 C221.67033203 239.33809082 221.77474609 238.38370117 221.88232422 237.40039062 C223.34285575 223.37512822 223.76692726 209.3820297 223.81591797 195.29248047 C223.821185 194.52845917 223.82645203 193.76443787 223.83187866 192.9772644 C224.02816188 156.24857095 213.11144272 121.8834748 189.56591797 93.29248047 C188.21122287 91.56372777 186.85702296 89.83458685 185.50341797 88.10498047 C178.48398724 79.41157728 171.03518068 71.58231993 162.56591797 64.29248047 C161.68548828 63.51259766 160.80505859 62.73271484 159.89794922 61.92919922 C128.34852717 34.6443887 81.40494142 8.03694051 38.56591797 9.29248047 Z " fill="#4D6CA6" transform="translate(254.43408203125,31.70751953125)"/>
<path d="M0 0 C1.73950195 1.55932617 1.73950195 1.55932617 3 3 C2.12154419 3.2019397 2.12154419 3.2019397 1.2253418 3.40795898 C-22.73250363 8.98585109 -45.85188138 16.22497676 -68 27 C-68.71720215 27.34417969 -69.4344043 27.68835938 -70.17333984 28.04296875 C-74.8259033 30.28082926 -79.42695811 32.60413167 -84 35 C-85.13308594 35.58910156 -86.26617187 36.17820313 -87.43359375 36.78515625 C-104.01514106 45.81395253 -118.71542581 57.64762575 -132 71 C-132.80308594 71.80308594 -133.60617188 72.60617188 -134.43359375 73.43359375 C-158.50783519 98.92136863 -175.5600364 131.13934986 -184 165 C-184.31517578 166.22759033 -184.31517578 166.22759033 -184.63671875 167.47998047 C-191.43995857 194.36823968 -194.18863148 223.21224106 -194.18530273 250.90405273 C-194.18749513 252.93299192 -194.20577168 254.96138994 -194.22460938 256.99023438 C-194.29345944 271.69605313 -192.18658636 285.01568781 -187.375 298.9375 C-187.15279785 299.58920166 -186.9305957 300.24090332 -186.70166016 300.91235352 C-181.22638337 316.93253522 -174.31764394 330.55228431 -164 344 C-162.99646484 345.32257813 -162.99646484 345.32257813 -161.97265625 346.671875 C-154.55088212 356.20331499 -146.42888409 365.41626558 -137 373 C-135.69095703 374.0828125 -135.69095703 374.0828125 -134.35546875 375.1875 C-119.91352986 386.75588237 -103.80913638 396.29992578 -87 404 C-85.82179687 404.54140625 -84.64359375 405.0828125 -83.4296875 405.640625 C-56.0221968 417.78085578 -24.28645925 425.40752217 5.70703125 426.82421875 C8 427 8 427 11 428 C10.67 428.99 10.34 429.98 10 431 C8.21606445 431.75195312 8.21606445 431.75195312 5.86328125 432.28125 C4.55182129 432.58252808 4.55182129 432.58252808 3.21386719 432.88989258 C2.25641602 433.09122803 1.29896484 433.29256348 0.3125 433.5 C-0.69006836 433.71358154 -1.69263672 433.92716309 -2.72558594 434.1472168 C-5.812985 434.7873995 -8.90512047 435.39714064 -12 436 C-12.83160645 436.17096191 -13.66321289 436.34192383 -14.52001953 436.51806641 C-63.99743764 446.38077674 -123.21629401 438.15099785 -165.6875 410.1875 C-210.48443299 379.79457564 -237.99675256 330.16056877 -249 278 C-249.26901123 276.75935791 -249.26901123 276.75935791 -249.54345703 275.49365234 C-255.15174183 248.25420752 -254.52811815 215.95451196 -248 189 C-247.6299585 187.39463379 -247.6299585 187.39463379 -247.25244141 185.75683594 C-243.60739015 170.08020667 -238.94596778 154.95231507 -233 140 C-232.72752441 139.29939453 -232.45504883 138.59878906 -232.17431641 137.87695312 C-213.93956309 91.42800104 -178.75233619 49.14480775 -135 25 C-133.81664062 24.33871094 -133.81664062 24.33871094 -132.609375 23.6640625 C-120.44885403 16.91236221 -108.23686883 11.28657462 -95 7 C-94.02796631 6.6817627 -93.05593262 6.36352539 -92.05444336 6.03564453 C-62.75311689 -3.29751892 -30.2456139 -7.4920328 0 0 Z " fill="#4F6DA7" transform="translate(259,32)"/>
<path d="M0 0 C4.92017771 4.33642781 9.77222216 8.72642945 14.53515625 13.234375 C15.47617187 14.12125 16.4171875 15.008125 17.38671875 15.921875 C23.6947866 22.03448159 29.12581058 28.47084577 34.29248047 35.54296875 C35.54390923 37.24628869 36.82071152 38.92810642 38.1015625 40.609375 C43.96442898 48.4176117 48.5290442 56.49155308 52.64892578 65.33544922 C53.47850604 67.11299061 54.33215441 68.87924354 55.1875 70.64453125 C80.45215428 123.55244593 72.59544747 198.57647568 53.69628906 252.63378906 C46.86566036 271.41247964 37.97297392 288.57659107 25.53515625 304.234375 C24.35759766 305.72904297 24.35759766 305.72904297 23.15625 307.25390625 C-5.49678128 342.88332776 -42.83661781 370.9896374 -89.4309082 376.77368164 C-95.33601231 377.40825009 -101.22335624 377.35901678 -107.15625 377.33203125 C-108.3421019 377.3306163 -109.5279538 377.32920135 -110.7497406 377.32774353 C-114.50896814 377.32218009 -118.26813444 377.3096344 -122.02734375 377.296875 C-124.58788976 377.29185527 -127.14843671 377.2872932 -129.70898438 377.28320312 C-135.96095812 377.27222265 -142.21289656 377.25552123 -148.46484375 377.234375 C-148.46484375 376.574375 -148.46484375 375.914375 -148.46484375 375.234375 C-149.28339844 375.22019531 -150.10195313 375.20601563 -150.9453125 375.19140625 C-203.42579901 373.14527559 -261.2645932 353.95972018 -300.01171875 317.53515625 C-302.15358807 315.52630111 -304.34286687 313.62307407 -306.58984375 311.734375 C-316.92393306 302.65290257 -324.71172095 291.50487198 -332.46484375 280.234375 C-333.14804687 279.24953125 -333.83125 278.2646875 -334.53515625 277.25 C-340.95300538 267.16054416 -344.52906797 255.45578089 -348.46484375 244.234375 C-348.71427734 243.53538086 -348.96371094 242.83638672 -349.22070312 242.11621094 C-353.90060722 228.87568228 -354.83564575 215.30238595 -354.77734375 201.359375 C-354.77651794 200.68704834 -354.77569214 200.01472168 -354.77484131 199.32202148 C-354.73011853 183.20487475 -353.27955803 167.23962662 -351.46484375 151.234375 C-351.35351105 150.23942017 -351.35351105 150.23942017 -351.2399292 149.22436523 C-345.44520388 98.00261224 -326.21990672 55.11988377 -291.46484375 17.234375 C-290.69785156 16.39519531 -289.93085938 15.55601563 -289.140625 14.69140625 C-282.85955863 8.13169738 -275.71257556 2.67065717 -268.46484375 -2.765625 C-267.58771729 -3.42594727 -267.58771729 -3.42594727 -266.69287109 -4.09960938 C-237.59794349 -25.85373798 -202.85224631 -38.85922333 -167.98779297 -48.09326172 C-163.77877273 -49.21496113 -159.59825578 -50.38782099 -155.46484375 -51.765625 C-99.26936148 -60.95271458 -42.50528481 -36.00138497 0 0 Z M-147.02734375 -43.203125 C-148.12216064 -43.02040039 -149.21697754 -42.83767578 -150.3449707 -42.64941406 C-191.04290772 -35.56336416 -232.84818199 -19.42631478 -265.46484375 6.234375 C-266.87056641 7.30558594 -266.87056641 7.30558594 -268.3046875 8.3984375 C-314.0905961 44.30104424 -335.9045943 96.95806515 -342.75708008 153.29760742 C-346.2269578 182.91908983 -349.68576227 214.66480389 -339.46484375 243.234375 C-339.14918457 244.15798828 -338.83352539 245.08160156 -338.50830078 246.03320312 C-333.05315245 261.89975149 -325.86298501 275.01639883 -315.46484375 288.234375 C-314.76617187 289.13929688 -314.0675 290.04421875 -313.34765625 290.9765625 C-281.2078629 331.59278486 -231.51862063 353.63346939 -181.46484375 362.234375 C-180.71477051 362.3679541 -179.96469727 362.5015332 -179.19189453 362.63916016 C-167.62040924 364.67175157 -155.96954903 365.84516631 -144.27734375 366.921875 C-143.56011139 366.98867462 -142.84287903 367.05547424 -142.10391235 367.1242981 C-129.75879474 368.80612664 -129.75879474 368.80612664 -117.55200195 367.72265625 C-115.05509236 367.13851551 -112.87105859 367.18986175 -110.30859375 367.27734375 C-73.89221138 368.15544051 -43.94848856 355.86604689 -15.36157227 333.70141602 C-14.00907331 332.65531404 -12.62521665 331.6492413 -11.22241211 330.67163086 C-10.64241455 330.19733643 -10.06241699 329.72304199 -9.46484375 329.234375 C-9.46484375 328.574375 -9.46484375 327.914375 -9.46484375 327.234375 C-8.61986328 326.87666016 -8.61986328 326.87666016 -7.7578125 326.51171875 C0.89822598 321.68970072 7.53576814 311.92839546 13.53515625 304.234375 C13.99148438 303.65977539 14.4478125 303.08517578 14.91796875 302.49316406 C27.09050946 287.1228904 36.91552329 270.72831479 43.53515625 252.234375 C43.79635254 251.50847168 44.05754883 250.78256836 44.32666016 250.03466797 C51.46811556 229.78363539 55.22159061 208.53601809 57.53515625 187.234375 C57.63957031 186.27998535 57.74398438 185.3255957 57.8515625 184.34228516 C59.31209403 170.31702275 59.73616554 156.32392423 59.78515625 142.234375 C59.79042328 141.4703537 59.79569031 140.7063324 59.80111694 139.91915894 C59.99740016 103.19046548 49.080681 68.82536934 25.53515625 40.234375 C24.18046115 38.5056223 22.82626125 36.77648138 21.47265625 35.046875 C14.45322552 26.35347181 7.00441897 18.52421446 -1.46484375 11.234375 C-2.34527344 10.45449219 -3.22570312 9.67460938 -4.1328125 8.87109375 C-35.74843942 -18.47097257 -82.28244056 -44.65492272 -125.13232422 -43.74804688 C-127.46484375 -43.765625 -127.46484375 -43.765625 -131.3671875 -44.36328125 C-136.68676479 -45.10953853 -141.77494624 -44.09669826 -147.02734375 -43.203125 Z " fill="#92A4C8" transform="translate(418.46484375,84.765625)"/>
<path d="M0 0 C0.19749082 6.77055407 -0.29411241 13.07422206 -1.53125 19.7265625 C-1.68662231 20.60025482 -1.84199463 21.47394714 -2.0020752 22.37411499 C-2.49332855 25.12592931 -2.99643254 27.87541543 -3.5 30.625 C-3.83803055 32.50636847 -4.17527718 34.38787797 -4.51171875 36.26953125 C-5.33210537 40.84803215 -6.16311673 45.42448696 -7 50 C-8.32 50 -9.64 50 -11 50 C-11.42297363 48.61663452 -11.42297363 48.61663452 -11.85449219 47.20532227 C-12.91488628 43.74262069 -13.98274796 40.28225809 -15.05273438 36.82250977 C-15.51241686 35.33256551 -15.97014543 33.84201681 -16.42578125 32.35083008 C-21.86884867 11.89260601 -21.86884867 11.89260601 -35.6640625 -2.96875 C-49.9217983 -9.26313503 -67.48873721 -8.82783774 -81.90185547 -3.26611328 C-105.0310435 6.26896082 -118.80679039 26.09587575 -128.5 48.4609375 C-131.10422211 55.31329692 -132.9434091 62.32539952 -134.6875 69.4375 C-134.99155762 70.66968262 -134.99155762 70.66968262 -135.30175781 71.92675781 C-138.51086408 85.67930506 -139.37960238 99.19563887 -139.3125 113.25 C-139.31034485 114.06393219 -139.3081897 114.87786438 -139.30596924 115.71646118 C-139.19353851 142.18609887 -135.3986664 168.72625563 -116.375 188.74609375 C-105.97094911 198.61967494 -95.49799037 202.30983678 -81.3125 202.4375 C-79.99415161 202.4528479 -79.99415161 202.4528479 -78.64916992 202.46850586 C-68.90123814 202.33753205 -60.40155834 199.44568518 -53 193 C-45.06679673 184.28648166 -39.45132144 173.62279029 -33.49316406 163.52734375 C-31.16503622 159.58673233 -28.81887276 155.65866856 -26.4375 151.75 C-26.03217041 151.06454102 -25.62684082 150.37908203 -25.20922852 149.67285156 C-24.05859375 147.796875 -24.05859375 147.796875 -22 145 C-21.01 145 -20.02 145 -19 145 C-18.85744612 150.41435792 -19.38572671 155.47883798 -20.2421875 160.8203125 C-20.43483688 162.05284256 -20.43483688 162.05284256 -20.63137817 163.31027222 C-20.90279013 165.03685925 -21.17691254 166.76302218 -21.45361328 168.48876953 C-21.87464365 171.12277067 -22.28355405 173.75846123 -22.69140625 176.39453125 C-22.95760692 178.07824001 -23.22451005 179.76183789 -23.4921875 181.4453125 C-23.6131076 182.22875031 -23.73402771 183.01218811 -23.85861206 183.81936646 C-24.49932461 187.75964376 -25.15975257 191.40992561 -27 195 C-31.01736349 197.61610711 -35.5511784 199.23988119 -40 201 C-40.65516602 201.26490234 -41.31033203 201.52980469 -41.98535156 201.80273438 C-66.02227817 211.38964957 -91.79457697 212.7875113 -117 207 C-118.55460937 206.70996094 -118.55460937 206.70996094 -120.140625 206.4140625 C-141.37495391 202.0422889 -160.91940656 187.46642193 -172.77734375 169.6328125 C-179.32340086 159.24902882 -182.41669334 147.8567152 -185 136 C-185.176521 135.2457373 -185.35304199 134.49147461 -185.53491211 133.71435547 C-186.54864264 127.79800059 -186.24503504 121.68054166 -186.25 115.6875 C-186.25101212 114.59995926 -186.25101212 114.59995926 -186.25204468 113.490448 C-186.23650086 103.01028252 -185.81697152 93.17744548 -183 83 C-182.6556219 81.62515718 -182.31190188 80.25014939 -181.96875 78.875 C-176.96720122 59.73249121 -167.65052661 43.14426491 -155 28 C-154.48566406 27.36191406 -153.97132813 26.72382813 -153.44140625 26.06640625 C-139.27537699 8.82915113 -118.14011746 -3.48259274 -97 -10 C-96.02377686 -10.31541748 -96.02377686 -10.31541748 -95.02783203 -10.63720703 C-63.63210888 -20.35364867 -28.68559002 -14.39083581 0 0 Z " fill="#FCFDFD" transform="translate(355,160)"/>
</svg>
